%TF.GenerationSoftware,KiCad,Pcbnew,8.0.8*%
%TF.CreationDate,2025-06-30T12:26:25+05:30*%
%TF.ProjectId,ATtiny85,41547469-6e79-4383-952e-6b696361645f,rev?*%
%TF.SameCoordinates,Original*%
%TF.FileFunction,Paste,Top*%
%TF.FilePolarity,Positive*%
%FSLAX46Y46*%
G04 Gerber Fmt 4.6, Leading zero omitted, Abs format (unit mm)*
G04 Created by KiCad (PCBNEW 8.0.8) date 2025-06-30 12:26:25*
%MOMM*%
%LPD*%
G01*
G04 APERTURE LIST*
G04 Aperture macros list*
%AMRoundRect*
0 Rectangle with rounded corners*
0 $1 Rounding radius*
0 $2 $3 $4 $5 $6 $7 $8 $9 X,Y pos of 4 corners*
0 Add a 4 corners polygon primitive as box body*
4,1,4,$2,$3,$4,$5,$6,$7,$8,$9,$2,$3,0*
0 Add four circle primitives for the rounded corners*
1,1,$1+$1,$2,$3*
1,1,$1+$1,$4,$5*
1,1,$1+$1,$6,$7*
1,1,$1+$1,$8,$9*
0 Add four rect primitives between the rounded corners*
20,1,$1+$1,$2,$3,$4,$5,0*
20,1,$1+$1,$4,$5,$6,$7,0*
20,1,$1+$1,$6,$7,$8,$9,0*
20,1,$1+$1,$8,$9,$2,$3,0*%
%AMFreePoly0*
4,1,9,3.862500,-0.866500,0.737500,-0.866500,0.737500,-0.450000,-0.737500,-0.450000,-0.737500,0.450000,0.737500,0.450000,0.737500,0.866500,3.862500,0.866500,3.862500,-0.866500,3.862500,-0.866500,$1*%
G04 Aperture macros list end*
%ADD10RoundRect,0.250000X-1.075000X0.312500X-1.075000X-0.312500X1.075000X-0.312500X1.075000X0.312500X0*%
%ADD11RoundRect,0.250000X-1.075000X0.375000X-1.075000X-0.375000X1.075000X-0.375000X1.075000X0.375000X0*%
%ADD12RoundRect,0.250000X0.300000X0.300000X-0.300000X0.300000X-0.300000X-0.300000X0.300000X-0.300000X0*%
%ADD13RoundRect,0.250000X0.325000X1.100000X-0.325000X1.100000X-0.325000X-1.100000X0.325000X-1.100000X0*%
%ADD14R,2.500000X1.100000*%
%ADD15RoundRect,0.225000X0.225000X-0.425000X0.225000X0.425000X-0.225000X0.425000X-0.225000X-0.425000X0*%
%ADD16FreePoly0,90.000000*%
%ADD17RoundRect,0.250000X-1.100000X0.325000X-1.100000X-0.325000X1.100000X-0.325000X1.100000X0.325000X0*%
%ADD18RoundRect,0.250000X-0.300000X-0.300000X0.300000X-0.300000X0.300000X0.300000X-0.300000X0.300000X0*%
%ADD19RoundRect,0.250000X0.312500X1.075000X-0.312500X1.075000X-0.312500X-1.075000X0.312500X-1.075000X0*%
%ADD20R,0.650000X1.700000*%
G04 APERTURE END LIST*
D10*
%TO.C,R5*%
X126400000Y-82737500D03*
X126400000Y-85662500D03*
%TD*%
%TO.C,R2*%
X126600000Y-75937500D03*
X126600000Y-78862500D03*
%TD*%
D11*
%TO.C,D4*%
X126200000Y-89400000D03*
X126200000Y-92200000D03*
%TD*%
D12*
%TO.C,D2*%
X133800000Y-68400000D03*
X131000000Y-68400000D03*
%TD*%
D13*
%TO.C,C1*%
X133675000Y-90800000D03*
X130725000Y-90800000D03*
%TD*%
D14*
%TO.C,J1*%
X122275000Y-75800000D03*
X122275000Y-73300000D03*
X122275000Y-71300000D03*
X122275000Y-68800000D03*
%TD*%
D10*
%TO.C,R3*%
X126600000Y-70137500D03*
X126600000Y-73062500D03*
%TD*%
D15*
%TO.C,U2*%
X130300000Y-86350000D03*
D16*
X131800000Y-86262500D03*
D15*
X133300000Y-86350000D03*
%TD*%
D11*
%TO.C,D5*%
X120600000Y-82400000D03*
X120600000Y-85200000D03*
%TD*%
D17*
%TO.C,C3*%
X137600000Y-80725000D03*
X137600000Y-83675000D03*
%TD*%
%TO.C,C2*%
X137600000Y-74325000D03*
X137600000Y-77275000D03*
%TD*%
D18*
%TO.C,D3*%
X125600000Y-66600000D03*
X128400000Y-66600000D03*
%TD*%
D10*
%TO.C,R4*%
X121000000Y-88737500D03*
X121000000Y-91662500D03*
%TD*%
D19*
%TO.C,R1*%
X139862500Y-68600000D03*
X136937500Y-68600000D03*
%TD*%
D20*
%TO.C,U1*%
X130095000Y-79850000D03*
X131365000Y-79850000D03*
X132635000Y-79850000D03*
X133905000Y-79850000D03*
X133905000Y-72550000D03*
X132635000Y-72550000D03*
X131365000Y-72550000D03*
X130095000Y-72550000D03*
%TD*%
M02*
