%TF.GenerationSoftware,KiCad,Pcbnew,8.0.8*%
%TF.CreationDate,2025-06-30T12:26:25+05:30*%
%TF.ProjectId,ATtiny85,41547469-6e79-4383-952e-6b696361645f,rev?*%
%TF.SameCoordinates,Original*%
%TF.FileFunction,Copper,L2,Bot*%
%TF.FilePolarity,Positive*%
%FSLAX46Y46*%
G04 Gerber Fmt 4.6, Leading zero omitted, Abs format (unit mm)*
G04 Created by KiCad (PCBNEW 8.0.8) date 2025-06-30 12:26:25*
%MOMM*%
%LPD*%
G01*
G04 APERTURE LIST*
G04 Aperture macros list*
%AMRoundRect*
0 Rectangle with rounded corners*
0 $1 Rounding radius*
0 $2 $3 $4 $5 $6 $7 $8 $9 X,Y pos of 4 corners*
0 Add a 4 corners polygon primitive as box body*
4,1,4,$2,$3,$4,$5,$6,$7,$8,$9,$2,$3,0*
0 Add four circle primitives for the rounded corners*
1,1,$1+$1,$2,$3*
1,1,$1+$1,$4,$5*
1,1,$1+$1,$6,$7*
1,1,$1+$1,$8,$9*
0 Add four rect primitives between the rounded corners*
20,1,$1+$1,$2,$3,$4,$5,0*
20,1,$1+$1,$4,$5,$6,$7,0*
20,1,$1+$1,$6,$7,$8,$9,0*
20,1,$1+$1,$8,$9,$2,$3,0*%
G04 Aperture macros list end*
%TA.AperFunction,ComponentPad*%
%ADD10R,2.200000X2.200000*%
%TD*%
%TA.AperFunction,ComponentPad*%
%ADD11O,2.200000X2.200000*%
%TD*%
%TA.AperFunction,HeatsinkPad*%
%ADD12O,3.500000X1.900000*%
%TD*%
%TA.AperFunction,ComponentPad*%
%ADD13O,2.030000X1.730000*%
%TD*%
%TA.AperFunction,ComponentPad*%
%ADD14R,2.030000X1.730000*%
%TD*%
%TA.AperFunction,ComponentPad*%
%ADD15RoundRect,0.250000X-0.625000X0.350000X-0.625000X-0.350000X0.625000X-0.350000X0.625000X0.350000X0*%
%TD*%
%TA.AperFunction,ComponentPad*%
%ADD16O,1.750000X1.200000*%
%TD*%
%TA.AperFunction,ViaPad*%
%ADD17C,0.600000*%
%TD*%
%TA.AperFunction,Conductor*%
%ADD18C,0.800000*%
%TD*%
%TA.AperFunction,Conductor*%
%ADD19C,0.200000*%
%TD*%
G04 APERTURE END LIST*
D10*
%TO.P,D1,1,K*%
%TO.N,+5V*%
X115600000Y-92280000D03*
D11*
%TO.P,D1,2,A*%
%TO.N,Net-(D1-A)*%
X115600000Y-82120000D03*
%TD*%
D12*
%TO.P,J1,5,GND*%
%TO.N,GND*%
X119525000Y-78000000D03*
X119525000Y-66600000D03*
%TD*%
D13*
%TO.P,J2,3,Pin_3*%
%TO.N,VIN*%
X141000000Y-92140000D03*
%TO.P,J2,2,Pin_2*%
%TO.N,GND*%
X141000000Y-89600000D03*
D14*
%TO.P,J2,1,Pin_1*%
%TO.N,+5V*%
X141000000Y-87060000D03*
%TD*%
D15*
%TO.P,J3,1,Pin_1*%
%TO.N,Net-(J3-Pin_1)*%
X144800000Y-72400000D03*
D16*
%TO.P,J3,2,Pin_2*%
%TO.N,/MISO*%
X144800000Y-74400000D03*
%TO.P,J3,3,Pin_3*%
%TO.N,Net-(J3-Pin_3)*%
X144800000Y-76400000D03*
%TO.P,J3,4,Pin_4*%
%TO.N,/D-*%
X144800000Y-78400000D03*
%TO.P,J3,5,Pin_5*%
%TO.N,/D+*%
X144800000Y-80400000D03*
%TO.P,J3,6,Pin_6*%
%TO.N,Net-(J3-Pin_6)*%
X144800000Y-82400000D03*
%TD*%
D17*
%TO.N,+5V*%
X141053000Y-68600000D03*
X136200000Y-90200000D03*
X141053000Y-73899000D03*
%TO.N,Net-(U2-IN)*%
X135026600Y-80725000D03*
X128787600Y-85197000D03*
%TO.N,Net-(D2-K)*%
X123455800Y-78862500D03*
X123455800Y-74372700D03*
%TO.N,/MISO*%
X128002800Y-84786600D03*
X134722200Y-70963300D03*
%TO.N,Net-(J3-Pin_6)*%
X129940872Y-82000000D03*
X135579800Y-82400000D03*
X132995400Y-81752400D03*
%TO.N,/D+*%
X128600000Y-68600000D03*
X128455200Y-76230600D03*
X128800000Y-81152400D03*
%TO.N,/D-*%
X129218800Y-78698300D03*
X129218800Y-75563400D03*
%TD*%
D18*
%TO.N,+5V*%
X141000000Y-85493300D02*
X141053000Y-85440300D01*
X137860000Y-90200000D02*
X141000000Y-87060000D01*
X141053000Y-73899000D02*
X141053000Y-68600000D01*
X141000000Y-87060000D02*
X141000000Y-85493300D01*
X136200000Y-90200000D02*
X137860000Y-90200000D01*
X141053000Y-85440300D02*
X141053000Y-73899000D01*
%TO.N,GND*%
X119525000Y-78000000D02*
X117073300Y-78000000D01*
X119525000Y-66600000D02*
X117073300Y-66600000D01*
X117073300Y-66600000D02*
X117073300Y-78000000D01*
D19*
%TO.N,Net-(U2-IN)*%
X133172000Y-80725000D02*
X135026600Y-80725000D01*
X128787600Y-85109400D02*
X133172000Y-80725000D01*
X128787600Y-85197000D02*
X128787600Y-85109400D01*
%TO.N,Net-(D2-K)*%
X123455800Y-74372700D02*
X123455800Y-78862500D01*
%TO.N,/MISO*%
X134722200Y-78067200D02*
X128002800Y-84786600D01*
X134722200Y-70963300D02*
X134722200Y-78067200D01*
%TO.N,Net-(J3-Pin_6)*%
X135579800Y-82400000D02*
X134932200Y-81752400D01*
X134932200Y-81752400D02*
X132995400Y-81752400D01*
X129940872Y-82000000D02*
X130000000Y-81940872D01*
%TO.N,/D+*%
X128800000Y-68800000D02*
X128800000Y-75133671D01*
X128800000Y-75133671D02*
X128455200Y-75478471D01*
X128400000Y-76230600D02*
X128455200Y-76230600D01*
X128600000Y-68600000D02*
X128800000Y-68800000D01*
X128400000Y-80752400D02*
X128400000Y-76230600D01*
X128800000Y-81152400D02*
X128400000Y-80752400D01*
X128455200Y-75478471D02*
X128455200Y-76230600D01*
%TO.N,/D-*%
X129218800Y-75563400D02*
X129218800Y-78698300D01*
%TD*%
M02*
